<?xml version="1.0" encoding="iso-8859-1"?>
<!-- Uploaded to: SVG Repo, www.svgrepo.com, Generator: SVG Repo Mixer Tools -->
<svg height="800px" width="800px" version="1.1" id="Layer_1" xmlns="http://www.w3.org/2000/svg" xmlns:xlink="http://www.w3.org/1999/xlink" 
	 viewBox="0 0 512 512" xml:space="preserve">
<polygon style="fill:#5CB0FF;" points="198.653,172.941 172.496,158.704 167.045,212.862 219.415,218.472 "/>
<g>
	<polygon style="fill:#D0E8FF;" points="303.729,301.627 389.347,301.627 342.852,249.152 303.729,244.961 	"/>
	<polygon style="fill:#D0E8FF;" points="286.373,243.102 112.814,224.508 112.814,301.627 286.373,301.627 	"/>
</g>
<path style="fill:#5CB0FF;" d="M303.729,318.983h-17.356H104.136H21.84l44.5,103.839l329.508-16.958
	c47.822-23.491,98.797-57.796,98.797-73.025v-13.856h-86.013H303.729z"/>
<g>
	<path style="fill:#1C71DA;" d="M503.322,301.627h-90.785l-58.922-66.5c-1.436-1.619-3.42-2.644-5.572-2.873l-108.575-11.633
		l-26.226-57.52c-0.78-1.712-2.093-3.119-3.746-4.017l-40.178-21.864c-2.555-1.39-5.631-1.407-8.203-0.051
		c-2.568,1.356-4.288,3.907-4.58,6.797l-6.749,67.046l-44.725-4.792c-2.47-0.271-4.894,0.534-6.725,2.169
		c-1.831,1.652-2.877,3.991-2.877,6.458v86.78H8.679c-2.915,0-5.64,1.466-7.246,3.898c-1.606,2.441-1.881,5.517-0.729,8.195
		l52.068,121.491c1.369,3.203,4.517,5.263,7.97,5.263c0.153,0,0.301,0,0.449-0.008l337.322-17.356
		c1.165-0.059,2.305-0.356,3.352-0.864C427.704,409.67,512,366.06,512,332.839v-22.534C512,305.508,508.114,301.627,503.322,301.627
		z M389.347,301.627h-85.618v-56.666l39.123,4.191L389.347,301.627z M172.496,158.704l26.157,14.237l20.762,45.532l-52.37-5.611
		L172.496,158.704z M112.814,224.508l173.559,18.593v58.525H112.814C112.814,301.627,112.814,224.508,112.814,224.508z
		 M494.644,332.839c0,15.229-50.975,49.534-98.797,73.025L66.34,422.822l-44.5-103.839h82.296h182.237h17.356h104.902h86.013
		V332.839z"/>
	<path style="fill:#1C71DA;" d="M451.254,438.169h-117.58c-4.792,0-8.678,3.881-8.678,8.678c0,4.797,3.886,8.678,8.678,8.678h117.58
		c4.792,0,8.678-3.881,8.678-8.678S456.047,438.169,451.254,438.169z"/>
	<path style="fill:#1C71DA;" d="M134.937,446.847H17.357c-4.792,0-8.678,3.881-8.678,8.678c0,4.797,3.886,8.678,8.678,8.678h117.58
		c4.792,0,8.678-3.881,8.678-8.678C143.615,450.728,139.729,446.847,134.937,446.847z"/>
</g>
<g>
	<path style="fill:#FF5D5D;" d="M400.303,221.356c-2.221,0-4.442-0.847-6.137-2.542c-3.389-3.388-3.389-8.883,0-12.271
		l30.681-30.682c3.39-3.39,8.883-3.39,12.273,0c3.389,3.388,3.389,8.883,0,12.271l-30.681,30.682
		C404.745,220.509,402.524,221.356,400.303,221.356z"/>
	<path style="fill:#FF5D5D;" d="M430.984,221.356c-2.221,0-4.442-0.847-6.137-2.542l-30.681-30.682
		c-3.389-3.388-3.389-8.883,0-12.271c3.392-3.388,8.886-3.388,12.273,0l30.681,30.682c3.389,3.388,3.389,8.883,0,12.271
		C435.426,220.509,433.204,221.356,430.984,221.356z"/>
</g>
<path style="fill:#00D40B;" d="M66.202,108.543c-16.748,0-30.373-13.625-30.373-30.373s13.625-30.373,30.373-30.373
	S96.575,61.422,96.575,78.17S82.95,108.543,66.202,108.543z M66.202,65.153c-7.178,0-13.017,5.839-13.017,13.017
	c0,7.178,5.839,13.017,13.017,13.017s13.017-5.839,13.017-13.017C79.219,70.992,73.38,65.153,66.202,65.153z"/>
<path style="fill:#FFC504;" d="M320.713,114.242c-2.22,0-4.442-0.847-6.135-2.542l-24.546-24.545
	c-1.628-1.627-2.542-3.835-2.542-6.136s0.914-4.508,2.542-6.136l24.546-24.545c3.39-3.39,8.884-3.388,12.272,0l24.544,24.545
	c3.389,3.388,3.389,8.883,0,12.271l-24.544,24.545C325.155,113.394,322.933,114.242,320.713,114.242z M308.44,81.019l12.273,12.271
	l12.272-12.271l-12.272-12.271L308.44,81.019z"/>
</svg>