<?xml version="1.0" encoding="iso-8859-1"?>
<!-- Uploaded to: SVG Repo, www.svgrepo.com, Generator: SVG Repo Mixer Tools -->
<svg version="1.1" id="Layer_1" xmlns="http://www.w3.org/2000/svg" xmlns:xlink="http://www.w3.org/1999/xlink" 
	 viewBox="0 0 512 512" xml:space="preserve">
<path style="fill:#4E8FE3;" d="M108.149,512v-88.736v-42.863c0-17.361,14.073-31.434,31.434-31.434h24.582
	c19.136,0,34.649-15.513,34.649-34.649v-54.893l114.373,4.507v50.387c0,19.136,15.513,34.649,34.649,34.649h24.582
	c17.361,0,31.434,14.073,31.434,31.434V512H108.149z"/>
<path style="opacity:0.54;fill:#3C66B1;enable-background:new    ;" d="M372.225,348.967h-24.582
	c-19.136,0-34.649-15.513-34.649-34.649v-50.387l-114.374-4.507v1.131l85.681,3.376v50.387c0,19.136,15.513,34.649,34.649,34.649
	h24.582c17.361,0,31.434,14.073,31.434,31.434v131.598h28.693V380.4C403.66,363.041,389.586,348.967,372.225,348.967z"/>
<path style="fill:#FF7956;" d="M313.239,316.196c-0.033-0.622-0.052-1.249-0.052-1.879v-50.387l-114.373-4.507v54.893
	c0,0.631-0.019,1.256-0.052,1.878l61.076,74.441L313.239,316.196z"/>
<g style="opacity:0.34;">
	<path style="fill:#FF5023;" d="M312.774,264.743l-114.374-5.319v37.532c0,0,28.995,9,57.187,9c29.625,0,57.187-9,57.187-9V264.743z
		"/>
</g>
<path style="fill:#FF5023;" d="M151.782,204.903c-19.244,0-34.843-15.6-34.843-34.843s15.6-34.843,34.843-34.843l213.519-0.29
	c19.244,0,34.843,15.6,34.843,34.843s-15.6,34.842-34.843,34.842L151.782,204.903z"/>
<path style="fill:#FF7956;" d="M253.865,0h11.943c54.311,0,98.747,44.436,98.747,98.747v95.429
	c0,54.311-44.436,98.747-98.747,98.747h-11.943c-54.311,0-98.747-44.436-98.747-98.747V98.747c0-35.281,18.751-66.394,46.78-83.867
	C201.898,14.88,225.263,0,253.865,0z"/>
<g>
	<path style="opacity:0.18;fill:#891C00;enable-background:new    ;" d="M320.223,16.464c10.391,15.629,16.464,34.345,16.464,54.414
		v95.429c0,54.311-44.436,98.747-98.747,98.747h-11.943c-20.069,0-38.785-6.073-54.414-16.464
		c17.729,26.665,48.041,44.333,82.283,44.333h11.943c54.311,0,98.747-44.436,98.747-98.747V98.747
		C364.556,64.505,346.888,34.194,320.223,16.464z"/>
	<path style="fill:#891C00;" d="M259.836,245.389c-15.438,0-30.875-5.876-42.628-17.629c-3.058-3.059-3.058-8.015,0-11.073
		c3.058-3.057,8.015-3.057,11.072,0c17.4,17.4,45.713,17.4,63.111,0c3.059-3.057,8.015-3.057,11.073,0
		c3.058,3.059,3.058,8.015,0,11.073C290.712,239.513,275.274,245.389,259.836,245.389z"/>
	<path style="fill:#891C00;" d="M206.487,79.981c29.464,29.464,77.236,29.464,106.7,0v0.03c0,24.376,19.761,44.137,44.137,44.137
		h7.232V98.747C364.556,44.436,320.12,0,265.809,0h-11.943c-28.602,0-51.967,14.88-51.967,14.88
		c-28.029,17.472-46.78,48.586-46.78,83.867v28.348C202.092,127.095,206.487,79.981,206.487,79.981z"/>
</g>
<path style="fill:#3E3B43;" d="M362.951,127.095H151.782c-4.324,0-7.83,3.504-7.83,7.83s3.506,7.83,7.83,7.83h32.712v21.748
	c0,8.042,6.519,14.563,14.562,14.563h32.272c8.042,0,14.562-6.52,14.562-14.563v-21.748h30.21v21.748
	c0,8.042,6.519,14.563,14.562,14.563h32.272c8.042,0,14.562-6.52,14.562-14.563v-21.748h25.454c4.325,0,7.829-3.504,7.829-7.83
	C370.781,130.599,367.276,127.095,362.951,127.095z"/>
<g>
	<rect x="183.649" y="390.64" style="fill:#CCA400;" width="146.84" height="88.567"/>
	<path style="fill:#CCA400;" d="M259.836,398.467c-2.341,0-4.563-1.048-6.053-2.864l-67.648-82.451
		c-2.742-3.343-2.256-8.276,1.087-11.019c3.342-2.743,8.275-2.257,11.02,1.087l61.179,74.566l53.203-74.164
		c2.52-3.513,7.413-4.319,10.926-1.798c3.513,2.52,4.319,7.412,1.798,10.926l-59.148,82.451c-1.418,1.977-3.676,3.183-6.108,3.261
		C260.006,398.466,259.921,398.467,259.836,398.467z"/>
</g>
<g>
	<polygon style="opacity:0.46;fill:#FFFFFF;enable-background:new    ;" points="313.628,179.065 295.848,179.065 302.696,142.754 
		320.475,142.754 	"/>
	<polygon style="opacity:0.46;fill:#FFFFFF;enable-background:new    ;" points="221.602,179.065 203.823,179.065 210.67,142.754 
		228.451,142.754 	"/>
</g>
<g>
	<path style="fill:#EEBF00;" d="M210.061,414.929c-0.072-0.287-0.143-0.575-0.143-0.718c0-2.297,3.374-3.876,5.887-3.876
		c1.579,0,2.8,0.502,3.159,1.867l10.984,38.911l10.912-38.911c0.359-1.364,1.579-1.867,3.159-1.867c2.513,0,5.888,1.65,5.888,3.876
		c0,0.216-0.072,0.431-0.144,0.718l-13.784,45.157c-0.646,2.154-3.303,3.159-6.031,3.159c-2.728,0-5.313-1.005-6.031-3.159
		L210.061,414.929z"/>
	<path style="fill:#EEBF00;" d="M254.857,413.205c0-2.01,2.298-2.871,4.666-2.871c2.298,0,4.666,0.861,4.666,2.871v46.666
		c0,1.938-2.37,2.943-4.666,2.943c-2.369,0-4.666-1.005-4.666-2.943V413.205z"/>
	<path style="fill:#EEBF00;" d="M272.803,413.205c0-1.506,1.364-2.871,3.518-2.871h14.429c9.118,0,16.297,4.378,16.297,16.154v0.43
		c0,11.774-7.394,16.297-16.871,16.297h-8.04v16.656c0,1.938-2.37,2.943-4.667,2.943c-2.369,0-4.666-1.005-4.666-2.943v-46.666
		H272.803z M282.136,418.519v17.374h8.04c4.666,0,7.538-2.657,7.538-8.256v-0.861c0-5.6-2.872-8.255-7.538-8.255h-8.04V418.519z"/>
</g>
</svg>